<svg width="60" height="60" viewBox="0 0 60 60" fill="none" xmlns="http://www.w3.org/2000/svg">
<path d="M7.20001 12.2C7.20001 9.43876 9.43876 7.20001 12.2 7.20001H47.2C49.9613 7.20001 52.2 9.43876 52.2 12.2V47.2C52.2 49.9613 49.9613 52.2 47.2 52.2H12.2C9.43876 52.2 7.20001 49.9613 7.20001 47.2V12.2Z" fill="#FF41C8"/>
<path d="M10.8 10.8V48.3H48.3V10.8H10.8ZM23.4163 26.6688L25.8088 20.565H29.9225L25.7475 29.3788L30.02 38.3388H25.8575L23.4163 32.125L20.9875 38.3388H16.825L21.0975 29.3788L16.91 20.565H21.0238L23.4163 26.6688ZM30.8863 31.3325C30.8863 29.1675 31.2525 27.5525 31.985 26.4863C32.7175 25.42 33.7825 24.8875 35.1838 24.8875C36.2 24.8875 37.0475 25.3275 37.7225 26.2063V19.59H41.2013V38.34H38.0638L37.905 36.9975C37.1975 38.0563 36.285 38.585 35.17 38.585C33.7875 38.585 32.7313 38.0563 32.0025 36.9975C31.2738 35.9388 30.9013 34.385 30.885 32.335V31.3325H30.8863ZM34.3538 32.1988C34.3538 33.5013 34.4913 34.4113 34.7688 34.9275C35.0463 35.4438 35.5138 35.7025 36.1725 35.7025C36.8563 35.7025 37.3725 35.3975 37.7225 34.7875V28.7575C37.3813 28.1063 36.8675 27.7813 36.185 27.7813C35.55 27.7813 35.0863 28.0375 34.7938 28.55C34.5013 29.0625 34.3538 29.975 34.3538 31.285V32.1988Z" fill="#16020B"/>
</svg>
