<svg width="60" height="60" viewBox="0 0 60 60" fill="none" xmlns="http://www.w3.org/2000/svg">
<path d="M57.9661 14.1119C57.9661 11.8615 56.1449 10.0373 53.8983 10.0373H29.4915C27.2449 10.0373 25.4237 11.8615 25.4237 14.1119C25.4237 14.6744 24.9684 15.1305 24.4068 15.1305C23.8451 15.1305 23.3898 14.6744 23.3898 14.1119C23.3898 10.7364 26.1217 8 29.4915 8H53.8983C57.2682 8 60 10.7364 60 14.1119V29.475C60 32.8505 57.2682 35.5869 53.8983 35.5869H51.8644V42.0087L46.5336 36.7566C45.7728 36.007 44.7483 35.5869 43.6811 35.5869H39.661C39.0994 35.5869 38.6441 35.1308 38.6441 34.5682C38.6441 34.0056 39.0994 33.5496 39.661 33.5496H43.6811C45.2819 33.5496 46.8186 34.1797 47.9599 35.3041L49.8305 37.1472V35.5869C49.8305 34.4617 50.7411 33.5496 51.8644 33.5496H53.8983C56.1449 33.5496 57.9661 31.7253 57.9661 29.475V14.1119Z" fill="black"/>
<path fill-rule="evenodd" clip-rule="evenodd" d="M6.1017 19.2051C3.85511 19.2051 2.0339 21.0293 2.0339 23.2797V39.0686C2.0339 41.319 3.85511 43.1432 6.1017 43.1432H8.13559C9.25888 43.1432 10.1695 44.0553 10.1695 45.1805V46.7958L12.0289 44.9333C13.1732 43.7871 14.7252 43.1432 16.3435 43.1432H30.5085C32.7551 43.1432 34.5763 41.319 34.5763 39.0686V23.2797C34.5763 21.0293 32.7551 19.2051 30.5085 19.2051H6.1017ZM0 23.2797C0 19.9042 2.73182 17.1678 6.1017 17.1678H30.5085C33.8783 17.1678 36.6102 19.9042 36.6102 23.2797V39.0686C36.6102 42.4441 33.8783 45.1805 30.5085 45.1805H16.3435C15.2646 45.1805 14.23 45.6098 13.4671 46.3739L8.13559 51.7143V45.1805H6.1017C2.73182 45.1805 0 42.4441 0 39.0686V23.2797Z" fill="black"/>
</svg>
