<svg width="60" height="60" viewBox="0 0 60 60" fill="none" xmlns="http://www.w3.org/2000/svg">
<path d="M27.6004 1.20001C18.9285 1.20001 12.5348 4.19064 8.40039 8.87814C4.26602 13.5703 2.40039 19.8703 2.40039 26.4C2.40039 31.6875 4.03633 36.6094 6.81133 40.6406C9.32383 44.2969 10.8004 48.6234 10.8004 53.0391V58.8H13.2004V53.0391C13.2004 48.0938 11.5551 43.3031 8.78945 39.2813C6.28164 35.6344 4.80039 31.1906 4.80039 26.4C4.80039 20.3297 6.53477 14.6297 10.2004 10.4719C13.866 6.30939 19.4723 3.60001 27.6004 3.60001C35.7613 3.60001 41.0488 5.97658 44.541 9.60939C48.0332 13.2375 49.7676 18.2438 50.4098 23.6625L50.4379 23.9063L56.1941 33.825C56.4895 34.3594 56.3395 34.8938 55.8191 35.1891L50.4004 37.8984V45.1172C50.4004 49.6078 46.7066 53.1 42.2301 52.6875L42.2113 52.6828L37.2004 52.3594V58.8H39.6004V54.9188L42.0098 55.0734C47.8551 55.6219 52.8004 50.9484 52.8004 45.1172V39.3797L56.9816 37.2891C58.6176 36.3797 59.1895 34.2797 58.2895 32.6578L58.2848 32.6484L52.7066 23.0391C51.9941 17.4188 50.166 11.9953 46.2707 7.94064C42.291 3.80626 36.2395 1.20001 27.6004 1.20001ZM30.0004 16.7813C29.4285 16.7859 28.9363 17.1891 28.8238 17.7516L25.2238 34.5516C25.0879 35.1984 25.5004 35.8359 26.1473 35.9766C26.7988 36.1125 27.4363 35.7 27.577 35.0484L31.177 18.2484C31.2566 17.8922 31.1723 17.5172 30.9426 17.2313C30.7129 16.9453 30.366 16.7813 30.0004 16.7813ZM19.8426 20.3859C19.4488 20.3766 19.0738 20.5594 18.8395 20.8828L14.7004 26.4L18.8395 31.9172C19.2379 32.4516 19.9879 32.5594 20.5176 32.1609C21.052 31.7625 21.1598 31.0125 20.7613 30.4828L17.7004 26.4L20.7613 22.3172C21.0379 21.9609 21.0895 21.4781 20.8973 21.0703C20.7051 20.6625 20.2973 20.4 19.8426 20.3859ZM36.5207 20.3859C36.0754 20.4141 35.6816 20.6813 35.4988 21.0891C35.3113 21.4922 35.3676 21.9656 35.6395 22.3172L38.7004 26.4L35.6395 30.4828C35.241 31.0125 35.3488 31.7625 35.8832 32.1609C36.4129 32.5594 37.1629 32.4516 37.5613 31.9172L41.7004 26.4L37.5613 20.8828C37.3223 20.55 36.9285 20.3625 36.5207 20.3859Z" fill="black"/>
</svg>
