<svg width="30" height="30" viewBox="0 0 30 30" fill="none" xmlns="http://www.w3.org/2000/svg">
<path d="M3.00008 7.0001C2.86757 6.99823 2.73601 7.02271 2.61304 7.07212C2.49007 7.12153 2.37815 7.1949 2.28378 7.28794C2.18941 7.38098 2.11447 7.49186 2.06333 7.61411C2.01218 7.73637 1.98584 7.86757 1.98584 8.0001C1.98584 8.13263 2.01218 8.26383 2.06333 8.38609C2.11447 8.50834 2.18941 8.61922 2.28378 8.71226C2.37815 8.8053 2.49007 8.87867 2.61304 8.92808C2.73601 8.97749 2.86757 9.00197 3.00008 9.0001H27.0001C27.1326 9.00197 27.2642 8.97749 27.3871 8.92808C27.5101 8.87867 27.622 8.8053 27.7164 8.71226C27.8108 8.61922 27.8857 8.50834 27.9368 8.38609C27.988 8.26383 28.0143 8.13263 28.0143 8.0001C28.0143 7.86757 27.988 7.73637 27.9368 7.61411C27.8857 7.49186 27.8108 7.38098 27.7164 7.28794C27.622 7.1949 27.5101 7.12153 27.3871 7.07212C27.2642 7.02271 27.1326 6.99823 27.0001 7.0001H3.00008ZM3.00008 14.0001C2.86757 13.9982 2.73601 14.0227 2.61304 14.0721C2.49007 14.1215 2.37815 14.1949 2.28378 14.2879C2.18941 14.381 2.11447 14.4919 2.06333 14.6141C2.01218 14.7364 1.98584 14.8676 1.98584 15.0001C1.98584 15.1326 2.01218 15.2638 2.06333 15.3861C2.11447 15.5083 2.18941 15.6192 2.28378 15.7123C2.37815 15.8053 2.49007 15.8787 2.61304 15.9281C2.73601 15.9775 2.86757 16.002 3.00008 16.0001H27.0001C27.1326 16.002 27.2642 15.9775 27.3871 15.9281C27.5101 15.8787 27.622 15.8053 27.7164 15.7123C27.8108 15.6192 27.8857 15.5083 27.9368 15.3861C27.988 15.2638 28.0143 15.1326 28.0143 15.0001C28.0143 14.8676 27.988 14.7364 27.9368 14.6141C27.8857 14.4919 27.8108 14.381 27.7164 14.2879C27.622 14.1949 27.5101 14.1215 27.3871 14.0721C27.2642 14.0227 27.1326 13.9982 27.0001 14.0001H3.00008ZM3.00008 21.0001C2.86757 20.9982 2.73601 21.0227 2.61304 21.0721C2.49007 21.1215 2.37815 21.1949 2.28378 21.2879C2.18941 21.381 2.11447 21.4919 2.06333 21.6141C2.01218 21.7364 1.98584 21.8676 1.98584 22.0001C1.98584 22.1326 2.01218 22.2638 2.06333 22.3861C2.11447 22.5083 2.18941 22.6192 2.28378 22.7123C2.37815 22.8053 2.49007 22.8787 2.61304 22.9281C2.73601 22.9775 2.86757 23.002 3.00008 23.0001H27.0001C27.1326 23.002 27.2642 22.9775 27.3871 22.9281C27.5101 22.8787 27.622 22.8053 27.7164 22.7123C27.8108 22.6192 27.8857 22.5083 27.9368 22.3861C27.988 22.2638 28.0143 22.1326 28.0143 22.0001C28.0143 21.8676 27.988 21.7364 27.9368 21.6141C27.8857 21.4919 27.8108 21.381 27.7164 21.2879C27.622 21.1949 27.5101 21.1215 27.3871 21.0721C27.2642 21.0227 27.1326 20.9982 27.0001 21.0001H3.00008Z" fill="#F3F3F3"/>
</svg>
