<svg width="60" height="60" viewBox="0 0 60 60" fill="none" xmlns="http://www.w3.org/2000/svg">
<path fill-rule="evenodd" clip-rule="evenodd" d="M30 58.2C45.5744 58.2 58.2 45.5744 58.2 30C58.2 14.4256 45.5744 1.8 30 1.8C14.4256 1.8 1.8 14.4256 1.8 30C1.8 45.5744 14.4256 58.2 30 58.2ZM30 60C46.5685 60 60 46.5685 60 30C60 13.4315 46.5685 0 30 0C13.4315 0 0 13.4315 0 30C0 46.5685 13.4315 60 30 60Z" fill="black"/>
<path d="M31.2198 12.7871L31.2001 10.1932L29.4002 10.2068L29.4198 12.7987C27.7715 12.9035 26.2913 13.2773 24.9791 13.92C23.4111 14.688 22.1951 15.744 21.3311 17.088C20.4991 18.4 20.0831 19.856 20.0831 21.456C20.0831 23.536 20.5311 25.184 21.4271 26.4C22.3551 27.584 23.4751 28.464 24.7871 29.04C26.1311 29.616 27.8911 30.192 30.0671 30.768C32.0511 31.312 33.6191 31.824 34.7711 32.304C35.9551 32.784 36.9311 33.504 37.6991 34.464C38.4991 35.424 38.8991 36.72 38.8991 38.352C38.8991 39.632 38.5631 40.8 37.8911 41.856C37.2191 42.912 36.2591 43.744 35.0111 44.352C33.7951 44.96 32.3551 45.264 30.6911 45.264C27.8431 45.264 25.7151 44.576 24.3071 43.2C22.9311 41.824 22.1151 40.256 21.8591 38.496H19.6031C19.7311 40.096 20.2431 41.552 21.1391 42.864C22.0671 44.176 23.3471 45.216 24.9791 45.984C26.3519 46.63 27.9172 47.0043 29.6749 47.1069L29.6748 49.8L31.4748 49.8001L31.4749 47.1179C33.3455 47.0297 34.9563 46.6197 36.3071 45.888C37.8751 45.024 39.0591 43.92 39.8591 42.576C40.6591 41.232 41.0591 39.808 41.0591 38.304C41.0591 36.256 40.5951 34.64 39.6671 33.456C38.7711 32.24 37.6671 31.36 36.3551 30.816C35.0751 30.24 33.3311 29.648 31.1231 29.04C29.1391 28.528 27.5551 28.032 26.3711 27.552C25.2191 27.04 24.2431 26.304 23.4431 25.344C22.6431 24.352 22.2431 23.04 22.2431 21.408C22.2431 19.36 23.0111 17.728 24.5471 16.512C26.0831 15.264 27.9711 14.64 30.2111 14.64C31.8751 14.64 33.2991 14.944 34.4831 15.552C35.6991 16.128 36.6271 16.864 37.2671 17.76C37.9391 18.656 38.3711 19.536 38.5631 20.4H40.8671C40.5151 18.256 39.4271 16.448 37.6031 14.976C35.949 13.6411 33.8212 12.9115 31.2198 12.7871Z" fill="black"/>
</svg>
