<svg xmlns="http://www.w3.org/2000/svg"  viewBox="0 0 64 64" width="64px" height="64px"><path d="M21.39,25,18,28.39a1.76,1.76,0,0,1-1.42.51s-.32-.23-.52-1.73A4.54,4.54,0,1,0,8.33,31,4.62,4.62,0,0,0,11,32.26c1.5.19,1.71.48,1.72.5a1.73,1.73,0,0,1-.5,1.43L8.78,37.6a3.53,3.53,0,0,0,0,5,.44.44,0,0,0,.15.12L12.19,46a1.79,1.79,0,0,1,.5,1.42s-.23.32-1.73.51a4.62,4.62,0,0,0-2.63,1.29,4.56,4.56,0,0,0,0,6.43A4.51,4.51,0,0,0,11.54,57h0a4.51,4.51,0,0,0,3.22-1.33A4.62,4.62,0,0,0,16.05,53c.19-1.5.48-1.71.5-1.72a1.73,1.73,0,0,1,1.43.5l3.41,3.41a3.54,3.54,0,0,0,5,0l3.42-3.41a3.72,3.72,0,0,0,1.07-3.07c-.21-1.85-2.57-2.15-3.45-2.27A2.55,2.55,0,0,1,25.21,44a2.55,2.55,0,0,1,4.34-1.79,2.5,2.5,0,0,1,.72,1.47c.11.88.41,3.24,2.27,3.45A3.7,3.7,0,0,0,35.6,46L39,42.6A3.45,3.45,0,0,0,40,40a3.54,3.54,0,0,0,2.57-1L46,35.61a1.76,1.76,0,0,1,1.42-.51s.32.23.51,1.73a4.62,4.62,0,0,0,1.29,2.63,4.51,4.51,0,0,0,3.21,1.33h0a4.51,4.51,0,0,0,3.21-1.33,4.56,4.56,0,0,0,0-6.43A4.62,4.62,0,0,0,53,31.74c-1.5-.19-1.71-.48-1.72-.5a1.76,1.76,0,0,1,.49-1.43l3.42-3.42a3.52,3.52,0,0,0,0-5L51.82,18a1.76,1.76,0,0,1-.51-1.42s.23-.32,1.73-.51a4.62,4.62,0,0,0,2.63-1.29A4.55,4.55,0,1,0,48,11c-.2,1.5-.49,1.71-.51,1.72a1.7,1.7,0,0,1-1.43-.5L42.61,8.77a3.61,3.61,0,0,0-5,0L25,21.39A3.42,3.42,0,0,0,24,24,3.5,3.5,0,0,0,21.39,25Zm5-2.17L39,10.18a1.57,1.57,0,0,1,2.17,0l3.42,3.42a3.73,3.73,0,0,0,3.06,1.07c1.85-.21,2.16-2.57,2.27-3.45a2.54,2.54,0,1,1,4.32,2.12,2.59,2.59,0,0,1-1.47.72c-.89.12-3.25.42-3.46,2.27A3.73,3.73,0,0,0,50.4,19.4l3.42,3.41a1.55,1.55,0,0,1,0,2.17L50.4,28.4a3.7,3.7,0,0,0-1.07,3.06c.21,1.85,2.57,2.15,3.45,2.27a2.54,2.54,0,0,1-.32,5.06h0a2.56,2.56,0,0,1-1.79-.74,2.53,2.53,0,0,1-.72-1.48c-.12-.88-.42-3.24-2.27-3.45a3.72,3.72,0,0,0-3.07,1.07L41.19,37.6a1.53,1.53,0,0,1-2.17,0l-3.41-3.41a1.76,1.76,0,0,1-.51-1.42s.23-.32,1.73-.51A4.62,4.62,0,0,0,39.46,31a4.55,4.55,0,1,0-7.71-3.8c-.2,1.5-.49,1.71-.51,1.72a1.76,1.76,0,0,1-1.43-.49L26.39,25A1.55,1.55,0,0,1,26.39,22.81Zm2,7a3.71,3.71,0,0,0,3.06,1.07c1.85-.21,2.16-2.57,2.27-3.45a2.54,2.54,0,1,1,4.32,2.12,2.59,2.59,0,0,1-1.48.72c-.88.12-3.24.42-3.45,2.27a3.73,3.73,0,0,0,1.07,3.07L37.61,39a1.55,1.55,0,0,1,0,2.17L34.19,44.6a1.75,1.75,0,0,1-1.42.51s-.32-.23-.51-1.73A4.62,4.62,0,0,0,31,40.75a4.56,4.56,0,0,0-6.43,0,4.55,4.55,0,0,0,0,6.43,4.62,4.62,0,0,0,2.63,1.29c1.5.19,1.71.48,1.72.5a1.73,1.73,0,0,1-.5,1.43L25,53.81a1.53,1.53,0,0,1-2.17,0L19.4,50.4a3.75,3.75,0,0,0-3.07-1.07c-1.85.21-2.15,2.57-2.27,3.45a2.48,2.48,0,0,1-.72,1.47,2.54,2.54,0,0,1-1.8.75h0a2.54,2.54,0,0,1-.32-5.06c.88-.12,3.24-.42,3.45-2.26a3.72,3.72,0,0,0-1.07-3.07l-3.42-3.42a.4.4,0,0,0-.12-.1A1.55,1.55,0,0,1,10.18,39l3.42-3.41a3.73,3.73,0,0,0,1.07-3.07c-.21-1.85-2.57-2.15-3.45-2.27a2.59,2.59,0,0,1-1.48-.72A2.53,2.53,0,0,1,9,27.75,2.47,2.47,0,0,1,9.75,26a2.54,2.54,0,0,1,3.59,0,2.59,2.59,0,0,1,.72,1.48c.11.88.42,3.24,2.26,3.45a3.71,3.71,0,0,0,3.07-1.07l3.42-3.42a1.55,1.55,0,0,1,2.17,0Z"/></svg>