<svg width="172" height="48" viewBox="0 0 172 48" fill="none" xmlns="http://www.w3.org/2000/svg">
<path fill-rule="evenodd" clip-rule="evenodd" d="M20 4L0 24L20 44L40 24L39.9999 18L37 21L20 4ZM17.9421 12.0579L6.00003 24L20 38L34 24L22.1848 12.0579V23.9421L25 21L28 24L20 32L12 24L15 21L17.9421 23.9421V12.0579Z" fill="white"/>
<path d="M67.416 32.336C66.12 32.336 64.976 32.104 63.984 31.64C62.992 31.176 62.216 30.512 61.656 29.648C61.096 28.784 60.816 27.744 60.816 26.528V25.856H63.936V26.528C63.936 27.536 64.248 28.296 64.872 28.808C65.496 29.304 66.344 29.552 67.416 29.552C68.504 29.552 69.312 29.336 69.84 28.904C70.384 28.472 70.656 27.92 70.656 27.248C70.656 26.784 70.52 26.408 70.248 26.12C69.992 25.832 69.608 25.6 69.096 25.424C68.6 25.232 67.992 25.056 67.272 24.896L66.72 24.776C65.568 24.52 64.576 24.2 63.744 23.816C62.928 23.416 62.296 22.896 61.848 22.256C61.416 21.616 61.2 20.784 61.2 19.76C61.2 18.736 61.44 17.864 61.92 17.144C62.416 16.408 63.104 15.848 63.984 15.464C64.88 15.064 65.928 14.864 67.128 14.864C68.328 14.864 69.392 15.072 70.32 15.488C71.264 15.888 72 16.496 72.528 17.312C73.072 18.112 73.344 19.12 73.344 20.336V21.056H70.224V20.336C70.224 19.696 70.096 19.184 69.84 18.8C69.6 18.4 69.248 18.112 68.784 17.936C68.32 17.744 67.768 17.648 67.128 17.648C66.168 17.648 65.456 17.832 64.992 18.2C64.544 18.552 64.32 19.04 64.32 19.664C64.32 20.08 64.424 20.432 64.632 20.72C64.856 21.008 65.184 21.248 65.616 21.44C66.048 21.632 66.6 21.8 67.272 21.944L67.824 22.064C69.024 22.32 70.064 22.648 70.944 23.048C71.84 23.448 72.536 23.976 73.032 24.632C73.528 25.288 73.776 26.128 73.776 27.152C73.776 28.176 73.512 29.08 72.984 29.864C72.472 30.632 71.736 31.24 70.776 31.688C69.832 32.12 68.712 32.336 67.416 32.336ZM80.7947 32C80.0107 32 79.3707 31.76 78.8747 31.28C78.3947 30.784 78.1547 30.128 78.1547 29.312V22.592H75.1787V20.096H78.1547V16.4H81.1787V20.096H84.4427V22.592H81.1787V28.784C81.1787 29.264 81.4027 29.504 81.8507 29.504H84.1547V32H80.7947ZM90.876 32.336C90.028 32.336 89.268 32.192 88.596 31.904C87.924 31.6 87.388 31.168 86.988 30.608C86.604 30.032 86.412 29.336 86.412 28.52C86.412 27.704 86.604 27.024 86.988 26.48C87.388 25.92 87.932 25.504 88.62 25.232C89.324 24.944 90.124 24.8 91.02 24.8H94.284V24.128C94.284 23.568 94.108 23.112 93.756 22.76C93.404 22.392 92.844 22.208 92.076 22.208C91.324 22.208 90.764 22.384 90.396 22.736C90.028 23.072 89.788 23.512 89.676 24.056L86.892 23.12C87.084 22.512 87.388 21.96 87.804 21.464C88.236 20.952 88.804 20.544 89.508 20.24C90.228 19.92 91.1 19.76 92.124 19.76C93.692 19.76 94.932 20.152 95.844 20.936C96.756 21.72 97.212 22.856 97.212 24.344V28.784C97.212 29.264 97.436 29.504 97.884 29.504H98.844V32H96.828C96.236 32 95.748 31.856 95.364 31.568C94.98 31.28 94.788 30.896 94.788 30.416V30.392H94.332C94.268 30.584 94.124 30.84 93.9 31.16C93.676 31.464 93.324 31.736 92.844 31.976C92.364 32.216 91.708 32.336 90.876 32.336ZM91.404 29.888C92.252 29.888 92.94 29.656 93.468 29.192C94.012 28.712 94.284 28.08 94.284 27.296V27.056H91.236C90.676 27.056 90.236 27.176 89.916 27.416C89.596 27.656 89.436 27.992 89.436 28.424C89.436 28.856 89.604 29.208 89.94 29.48C90.276 29.752 90.764 29.888 91.404 29.888ZM101.055 32V20.096H104.031V21.44H104.463C104.639 20.96 104.927 20.608 105.327 20.384C105.743 20.16 106.223 20.048 106.767 20.048H108.207V22.736H106.719C105.951 22.736 105.319 22.944 104.823 23.36C104.327 23.76 104.079 24.384 104.079 25.232V32H101.055ZM115.131 32C114.347 32 113.707 31.76 113.211 31.28C112.731 30.784 112.491 30.128 112.491 29.312V22.592H109.515V20.096H112.491V16.4H115.515V20.096H118.779V22.592H115.515V28.784C115.515 29.264 115.739 29.504 116.187 29.504H118.491V32H115.131ZM125.212 32.336C124.364 32.336 123.604 32.192 122.932 31.904C122.26 31.6 121.724 31.168 121.324 30.608C120.94 30.032 120.748 29.336 120.748 28.52C120.748 27.704 120.94 27.024 121.324 26.48C121.724 25.92 122.268 25.504 122.956 25.232C123.66 24.944 124.46 24.8 125.356 24.8H128.62V24.128C128.62 23.568 128.444 23.112 128.092 22.76C127.74 22.392 127.18 22.208 126.412 22.208C125.66 22.208 125.1 22.384 124.732 22.736C124.364 23.072 124.124 23.512 124.012 24.056L121.228 23.12C121.42 22.512 121.724 21.96 122.14 21.464C122.572 20.952 123.14 20.544 123.844 20.24C124.564 19.92 125.436 19.76 126.46 19.76C128.028 19.76 129.268 20.152 130.18 20.936C131.092 21.72 131.548 22.856 131.548 24.344V28.784C131.548 29.264 131.772 29.504 132.22 29.504H133.18V32H131.164C130.572 32 130.084 31.856 129.7 31.568C129.316 31.28 129.124 30.896 129.124 30.416V30.392H128.668C128.604 30.584 128.46 30.84 128.236 31.16C128.012 31.464 127.66 31.736 127.18 31.976C126.7 32.216 126.044 32.336 125.212 32.336ZM125.74 29.888C126.588 29.888 127.276 29.656 127.804 29.192C128.348 28.712 128.62 28.08 128.62 27.296V27.056H125.572C125.012 27.056 124.572 27.176 124.252 27.416C123.932 27.656 123.772 27.992 123.772 28.424C123.772 28.856 123.94 29.208 124.276 29.48C124.612 29.752 125.1 29.888 125.74 29.888ZM135.391 32V20.096H138.367V21.44H138.799C138.975 20.96 139.263 20.608 139.663 20.384C140.079 20.16 140.559 20.048 141.103 20.048H142.543V22.736H141.055C140.287 22.736 139.655 22.944 139.159 23.36C138.663 23.76 138.415 24.384 138.415 25.232V32H135.391ZM150.077 32.336C148.925 32.336 147.877 32.096 146.933 31.616C146.005 31.136 145.269 30.44 144.725 29.528C144.181 28.616 143.909 27.512 143.909 26.216V25.88C143.909 24.584 144.181 23.48 144.725 22.568C145.269 21.656 146.005 20.96 146.933 20.48C147.877 20 148.925 19.76 150.077 19.76C151.213 19.76 152.189 19.96 153.005 20.36C153.821 20.76 154.477 21.312 154.973 22.016C155.485 22.704 155.821 23.488 155.981 24.368L153.053 24.992C152.989 24.512 152.845 24.08 152.621 23.696C152.397 23.312 152.077 23.008 151.661 22.784C151.261 22.56 150.757 22.448 150.149 22.448C149.541 22.448 148.989 22.584 148.493 22.856C148.013 23.112 147.629 23.504 147.341 24.032C147.069 24.544 146.933 25.176 146.933 25.928V26.168C146.933 26.92 147.069 27.56 147.341 28.088C147.629 28.6 148.013 28.992 148.493 29.264C148.989 29.52 149.541 29.648 150.149 29.648C151.061 29.648 151.749 29.416 152.213 28.952C152.693 28.472 152.997 27.848 153.125 27.08L156.053 27.776C155.845 28.624 155.485 29.4 154.973 30.104C154.477 30.792 153.821 31.336 153.005 31.736C152.189 32.136 151.213 32.336 150.077 32.336ZM158.547 32V15.2H161.571V21.56H162.003C162.131 21.304 162.331 21.048 162.603 20.792C162.875 20.536 163.235 20.328 163.683 20.168C164.147 19.992 164.731 19.904 165.435 19.904C166.363 19.904 167.171 20.12 167.859 20.552C168.563 20.968 169.107 21.552 169.491 22.304C169.875 23.04 170.067 23.904 170.067 24.896V32H167.043V25.136C167.043 24.24 166.819 23.568 166.371 23.12C165.939 22.672 165.315 22.448 164.499 22.448C163.571 22.448 162.851 22.76 162.339 23.384C161.827 23.992 161.571 24.848 161.571 25.952V32H158.547Z" fill="white"/>
</svg>
